# xmcd
#
# Track frame offsets: 
#        150
#        23262
#        43882
#        62705
#        82300
#        103907
#        125095
#        144820
#
# Disc length: 2193 seconds
#
# Revision: 0
# Processed by: cddbd v1.5.2PL0 Copyright (c) Steve Scherf et al.
# Submitted via: ExactAudioCopy v0.99pb3
#
DISCID=6c088f08
DTITLE=Layce Baker - Late Nite Love
DYEAR=2001
DGENRE=Blues
TTITLE0=Late Nite Love
TTITLE1=Honey Love
TTITLE2=Just Another Funky Blues Song
TTITLE3=Open Invitation
TTITLE4=Party Street
TTITLE5=Don't Pet My Dog
TTITLE6=I Want Your Body
TTITLE7=Be A Woman
EXTD=
EXTT0=
EXTT1=
EXTT2=
EXTT3=
EXTT4=
EXTT5=
EXTT6=
EXTT7=
PLAYORDER=
